<svg xmlns="http://www.w3.org/2000/svg" xmlns:xlink="http://www.w3.org/1999/xlink" viewBox="-161 -12 1625.79 210">
  <path id="path" class="cls-2" d="M106.5-195.5c-8.4,14.2-17.6,28.83-33.1,37.63-6.835,3.92-23.148,7.633-39.3,8.6a219.571,219.571,0,0,1-33.6-.9V-.5h1643l.3-85.8c.1-47.1-.1-63.82-.1-63.82a204.784,204.784,0,0,1-22.5-4.65c-9.944-2.649-21.285-6.941-29.2-9.8-20.387-7.363-43.863-18.291-56.6-27.13-5.1-3.4-10-6.3-11-6.3-.9,0-7,4-13.5,8.9-18.9,14.3-35.7,22.4-57.4,27.6-14.3,3.5-24.5,4.5-45,4.5-17.3,0-18.7-.2-36.5-4-21.2-4.6-27-6.4-43-13.2-6.3-2.6-12-4.8-12.7-4.8s-5.2,3.3-9.9,7.4c-10,8.6-24.2,16.4-35.9,19.8-10.7,3-35.4,3.3-48.5.5-26.8-5.7-59.3-18.7-85.2-34-4-2.3-8.1-4.6-9-4.9-1-.4-5.6,1.2-12,4.4-29.9,14.7-56.3,20.8-89.6,20.8-40,0-80-11-111.4-30.7A15.175,15.175,0,0,0,909-198c-1.1,0-8.4,4.7-16.3,10.4-17.1,12.5-28.1,18.9-44.1,25.7-26.3,11.1-49.5,15.8-82.1,16.6-15.2.4-23,.1-32.5-1.1-40.1-5.3-80.3-19.7-117.2-41.9L604.1-196l-11.3,11.3c-12.9,12.9-21.2,18.1-36.7,23.3-13.9,4.7-27.4,6.4-49.8,6.4-40.5,0-82.4-8.7-136.2-28.2l-19.4-7-3.9,4.6c-10.6,12.3-28.7,21-52.8,25.2-12.7,2.2-38.6,1.5-55.5-1.5-30.9-5.5-76.7-19.2-109-32.6-8.8-3.7-16.7-6.9-17.6-7.2C110.8-202,109.2-200.2,106.5-195.5Z" transform="translate(-161.5 198.87)"/>
</svg>